<mxfile host="Electron" modified="2024-06-27T08:12:24.670Z" agent="Mozilla/5.0 (Macintosh; Intel Mac OS X 10_15_7) AppleWebKit/537.36 (KHTML, like Gecko) draw.io/24.6.1 Chrome/124.0.6367.207 Electron/30.0.6 Safari/537.36" etag="eZakctS2FcypOTJT7KDz" version="24.6.1" type="device">
  <diagram name="Page-1" id="bIiGbefzb4_aCg-CE_wo">
    <mxGraphModel dx="866" dy="-1558" grid="0" gridSize="10" guides="1" tooltips="1" connect="1" arrows="1" fold="1" page="1" pageScale="1" pageWidth="850" pageHeight="1100" math="0" shadow="0">
      <root>
        <mxCell id="0" />
        <mxCell id="1" parent="0" />
        <mxCell id="QcDnKYY_5Ydh4a-uM4Bj-1" value="" style="group;sketch=1;curveFitting=1;jiggle=2;shadow=0;" parent="1" vertex="1" connectable="0">
          <mxGeometry x="93" y="2275" width="260" height="210" as="geometry" />
        </mxCell>
        <mxCell id="QcDnKYY_5Ydh4a-uM4Bj-2" value="&lt;h2&gt;&lt;font face=&quot;Helvetica&quot;&gt;&lt;span style=&quot;font-size: 22px; font-weight: 400;&quot;&gt;3&lt;/span&gt;&lt;/font&gt;&lt;/h2&gt;" style="ellipse;whiteSpace=wrap;html=1;aspect=fixed;hachureGap=4;fontFamily=Architects Daughter;fontSource=https%3A%2F%2Ffonts.googleapis.com%2Fcss%3Ffamily%3DArchitects%2BDaughter;fillColor=#B2C9AB;strokeColor=#788AA3;labelBackgroundColor=none;fontColor=#46495D;container=0;sketch=1;curveFitting=1;jiggle=2;shadow=0;" parent="QcDnKYY_5Ydh4a-uM4Bj-1" vertex="1">
          <mxGeometry x="103" width="50" height="50" as="geometry" />
        </mxCell>
        <mxCell id="QcDnKYY_5Ydh4a-uM4Bj-3" style="rounded=0;orthogonalLoop=1;jettySize=auto;html=1;exitX=0.32;exitY=0.96;exitDx=0;exitDy=0;entryX=0.747;entryY=0.033;entryDx=0;entryDy=0;endArrow=none;endFill=0;exitPerimeter=0;entryPerimeter=0;sketch=1;curveFitting=1;jiggle=2;shadow=0;" parent="QcDnKYY_5Ydh4a-uM4Bj-1" source="QcDnKYY_5Ydh4a-uM4Bj-5" target="QcDnKYY_5Ydh4a-uM4Bj-8" edge="1">
          <mxGeometry relative="1" as="geometry" />
        </mxCell>
        <mxCell id="QcDnKYY_5Ydh4a-uM4Bj-4" style="rounded=0;orthogonalLoop=1;jettySize=auto;html=1;exitX=0.72;exitY=0.96;exitDx=0;exitDy=0;entryX=0.227;entryY=0.047;entryDx=0;entryDy=0;endArrow=none;endFill=0;exitPerimeter=0;entryPerimeter=0;sketch=1;curveFitting=1;jiggle=2;shadow=0;" parent="QcDnKYY_5Ydh4a-uM4Bj-1" source="QcDnKYY_5Ydh4a-uM4Bj-5" target="QcDnKYY_5Ydh4a-uM4Bj-9" edge="1">
          <mxGeometry relative="1" as="geometry" />
        </mxCell>
        <mxCell id="QcDnKYY_5Ydh4a-uM4Bj-5" value="&lt;h2&gt;&lt;font face=&quot;Helvetica&quot; style=&quot;font-size: 22px; font-weight: normal;&quot;&gt;1&lt;/font&gt;&lt;/h2&gt;" style="ellipse;whiteSpace=wrap;html=1;aspect=fixed;hachureGap=4;fontFamily=Architects Daughter;fontSource=https%3A%2F%2Ffonts.googleapis.com%2Fcss%3Ffamily%3DArchitects%2BDaughter;fillColor=#B2C9AB;strokeColor=#788AA3;labelBackgroundColor=none;fontColor=#46495D;container=0;sketch=1;curveFitting=1;jiggle=2;shadow=0;" parent="QcDnKYY_5Ydh4a-uM4Bj-1" vertex="1">
          <mxGeometry x="40" y="80" width="50" height="50" as="geometry" />
        </mxCell>
        <mxCell id="QcDnKYY_5Ydh4a-uM4Bj-6" style="rounded=0;orthogonalLoop=1;jettySize=auto;html=1;entryX=0.353;entryY=0;entryDx=0;entryDy=0;endArrow=none;endFill=0;exitX=0.773;exitY=0.913;exitDx=0;exitDy=0;exitPerimeter=0;entryPerimeter=0;sketch=1;curveFitting=1;jiggle=2;shadow=0;" parent="QcDnKYY_5Ydh4a-uM4Bj-1" source="QcDnKYY_5Ydh4a-uM4Bj-7" target="QcDnKYY_5Ydh4a-uM4Bj-12" edge="1">
          <mxGeometry relative="1" as="geometry">
            <mxPoint x="210" y="123" as="sourcePoint" />
          </mxGeometry>
        </mxCell>
        <mxCell id="QcDnKYY_5Ydh4a-uM4Bj-7" value="&lt;h2&gt;&lt;font face=&quot;Helvetica&quot; style=&quot;font-size: 22px; font-weight: normal;&quot;&gt;4&lt;/font&gt;&lt;/h2&gt;" style="ellipse;whiteSpace=wrap;html=1;aspect=fixed;hachureGap=4;fontFamily=Architects Daughter;fontSource=https%3A%2F%2Ffonts.googleapis.com%2Fcss%3Ffamily%3DArchitects%2BDaughter;fillColor=#B2C9AB;strokeColor=#788AA3;labelBackgroundColor=none;fontColor=#46495D;container=0;sketch=1;curveFitting=1;jiggle=2;shadow=0;" parent="QcDnKYY_5Ydh4a-uM4Bj-1" vertex="1">
          <mxGeometry x="170" y="80" width="50" height="50" as="geometry" />
        </mxCell>
        <mxCell id="QcDnKYY_5Ydh4a-uM4Bj-8" value="&lt;h2&gt;&lt;font face=&quot;Helvetica&quot; style=&quot;font-size: 22px; font-weight: normal;&quot;&gt;0&lt;/font&gt;&lt;/h2&gt;" style="ellipse;whiteSpace=wrap;html=1;aspect=fixed;hachureGap=4;fontFamily=Architects Daughter;fontSource=https%3A%2F%2Ffonts.googleapis.com%2Fcss%3Ffamily%3DArchitects%2BDaughter;fillColor=#B2C9AB;strokeColor=#788AA3;labelBackgroundColor=none;fontColor=#46495D;container=0;sketch=1;curveFitting=1;jiggle=2;shadow=0;" parent="QcDnKYY_5Ydh4a-uM4Bj-1" vertex="1">
          <mxGeometry y="160" width="50" height="50" as="geometry" />
        </mxCell>
        <mxCell id="QcDnKYY_5Ydh4a-uM4Bj-9" value="&lt;h2&gt;&lt;font face=&quot;Helvetica&quot; style=&quot;font-size: 22px; font-weight: normal;&quot;&gt;2&lt;/font&gt;&lt;/h2&gt;" style="ellipse;whiteSpace=wrap;html=1;aspect=fixed;hachureGap=4;fontFamily=Architects Daughter;fontSource=https%3A%2F%2Ffonts.googleapis.com%2Fcss%3Ffamily%3DArchitects%2BDaughter;fillColor=#B2C9AB;strokeColor=#788AA3;labelBackgroundColor=none;fontColor=#46495D;container=0;sketch=1;curveFitting=1;jiggle=2;shadow=0;" parent="QcDnKYY_5Ydh4a-uM4Bj-1" vertex="1">
          <mxGeometry x="80" y="160" width="50" height="50" as="geometry" />
        </mxCell>
        <mxCell id="QcDnKYY_5Ydh4a-uM4Bj-10" style="rounded=0;orthogonalLoop=1;jettySize=auto;html=1;entryX=1;entryY=0;entryDx=0;entryDy=0;endArrow=none;endFill=0;exitX=0.329;exitY=0.964;exitDx=0;exitDy=0;exitPerimeter=0;sketch=1;curveFitting=1;jiggle=2;shadow=0;" parent="QcDnKYY_5Ydh4a-uM4Bj-1" source="QcDnKYY_5Ydh4a-uM4Bj-2" target="QcDnKYY_5Ydh4a-uM4Bj-5" edge="1">
          <mxGeometry relative="1" as="geometry">
            <mxPoint x="114" y="60" as="sourcePoint" />
            <mxPoint x="83" y="86" as="targetPoint" />
          </mxGeometry>
        </mxCell>
        <mxCell id="QcDnKYY_5Ydh4a-uM4Bj-11" style="rounded=0;orthogonalLoop=1;jettySize=auto;html=1;entryX=0;entryY=0;entryDx=0;entryDy=0;endArrow=none;endFill=0;exitX=0.754;exitY=0.935;exitDx=0;exitDy=0;exitPerimeter=0;sketch=1;curveFitting=1;jiggle=2;shadow=0;" parent="QcDnKYY_5Ydh4a-uM4Bj-1" source="QcDnKYY_5Ydh4a-uM4Bj-2" target="QcDnKYY_5Ydh4a-uM4Bj-7" edge="1">
          <mxGeometry relative="1" as="geometry">
            <mxPoint x="193" y="51" as="sourcePoint" />
            <mxPoint x="160" y="85" as="targetPoint" />
          </mxGeometry>
        </mxCell>
        <mxCell id="QcDnKYY_5Ydh4a-uM4Bj-12" value="&lt;h2&gt;&lt;font face=&quot;Helvetica&quot; style=&quot;font-size: 22px; font-weight: normal;&quot;&gt;5&lt;/font&gt;&lt;/h2&gt;" style="ellipse;whiteSpace=wrap;html=1;aspect=fixed;hachureGap=4;fontFamily=Architects Daughter;fontSource=https%3A%2F%2Ffonts.googleapis.com%2Fcss%3Ffamily%3DArchitects%2BDaughter;fillColor=#B2C9AB;strokeColor=#788AA3;labelBackgroundColor=none;fontColor=#46495D;container=0;sketch=1;curveFitting=1;jiggle=2;shadow=0;" parent="QcDnKYY_5Ydh4a-uM4Bj-1" vertex="1">
          <mxGeometry x="210" y="160" width="50" height="50" as="geometry" />
        </mxCell>
        <mxCell id="zqaokejbdEh-BQly5nrr-1" value="" style="group;sketch=1;curveFitting=1;jiggle=2;" vertex="1" connectable="0" parent="1">
          <mxGeometry x="500" y="2275" width="240" height="290" as="geometry" />
        </mxCell>
        <mxCell id="zqaokejbdEh-BQly5nrr-2" value="&lt;h2&gt;&lt;font face=&quot;Helvetica&quot; style=&quot;font-size: 22px; font-weight: normal;&quot;&gt;0&lt;/font&gt;&lt;/h2&gt;" style="ellipse;whiteSpace=wrap;html=1;aspect=fixed;hachureGap=4;fontFamily=Architects Daughter;fontSource=https%3A%2F%2Ffonts.googleapis.com%2Fcss%3Ffamily%3DArchitects%2BDaughter;fillColor=#B2C9AB;strokeColor=#788AA3;labelBackgroundColor=none;fontColor=#46495D;container=0;sketch=1;curveFitting=1;jiggle=2;" vertex="1" parent="zqaokejbdEh-BQly5nrr-1">
          <mxGeometry y="240" width="50" height="50" as="geometry" />
        </mxCell>
        <mxCell id="zqaokejbdEh-BQly5nrr-3" value="&lt;h2&gt;&lt;font face=&quot;Helvetica&quot;&gt;&lt;span style=&quot;font-size: 22px; font-weight: 400;&quot;&gt;4&lt;/span&gt;&lt;/font&gt;&lt;/h2&gt;" style="ellipse;whiteSpace=wrap;html=1;aspect=fixed;hachureGap=4;fontFamily=Architects Daughter;fontSource=https%3A%2F%2Ffonts.googleapis.com%2Fcss%3Ffamily%3DArchitects%2BDaughter;fillColor=#B2C9AB;strokeColor=#788AA3;labelBackgroundColor=none;fontColor=#46495D;container=0;sketch=1;curveFitting=1;jiggle=2;" vertex="1" parent="zqaokejbdEh-BQly5nrr-1">
          <mxGeometry x="130" width="50" height="50" as="geometry" />
        </mxCell>
        <mxCell id="zqaokejbdEh-BQly5nrr-4" style="rounded=0;orthogonalLoop=1;jettySize=auto;html=1;exitX=0.32;exitY=0.96;exitDx=0;exitDy=0;entryX=0.723;entryY=0.067;entryDx=0;entryDy=0;endArrow=none;endFill=0;exitPerimeter=0;entryPerimeter=0;sketch=1;curveFitting=1;jiggle=2;" edge="1" parent="zqaokejbdEh-BQly5nrr-1" source="zqaokejbdEh-BQly5nrr-6" target="zqaokejbdEh-BQly5nrr-9">
          <mxGeometry relative="1" as="geometry" />
        </mxCell>
        <mxCell id="zqaokejbdEh-BQly5nrr-5" style="rounded=0;orthogonalLoop=1;jettySize=auto;html=1;exitX=0.72;exitY=0.96;exitDx=0;exitDy=0;entryX=0.237;entryY=0.08;entryDx=0;entryDy=0;endArrow=none;endFill=0;exitPerimeter=0;entryPerimeter=0;sketch=1;curveFitting=1;jiggle=2;" edge="1" parent="zqaokejbdEh-BQly5nrr-1" source="zqaokejbdEh-BQly5nrr-6" target="zqaokejbdEh-BQly5nrr-10">
          <mxGeometry relative="1" as="geometry" />
        </mxCell>
        <mxCell id="zqaokejbdEh-BQly5nrr-6" value="&lt;h2&gt;&lt;font face=&quot;Helvetica&quot; style=&quot;font-size: 22px; font-weight: normal;&quot;&gt;2&lt;/font&gt;&lt;/h2&gt;" style="ellipse;whiteSpace=wrap;html=1;aspect=fixed;hachureGap=4;fontFamily=Architects Daughter;fontSource=https%3A%2F%2Ffonts.googleapis.com%2Fcss%3Ffamily%3DArchitects%2BDaughter;fillColor=#B2C9AB;strokeColor=#788AA3;labelBackgroundColor=none;fontColor=#46495D;container=0;sketch=1;curveFitting=1;jiggle=2;" vertex="1" parent="zqaokejbdEh-BQly5nrr-1">
          <mxGeometry x="77.5" y="82" width="50" height="50" as="geometry" />
        </mxCell>
        <mxCell id="zqaokejbdEh-BQly5nrr-7" value="&lt;h2&gt;&lt;font face=&quot;Helvetica&quot; style=&quot;font-size: 22px; font-weight: normal;&quot;&gt;5&lt;/font&gt;&lt;/h2&gt;" style="ellipse;whiteSpace=wrap;html=1;aspect=fixed;hachureGap=4;fontFamily=Architects Daughter;fontSource=https%3A%2F%2Ffonts.googleapis.com%2Fcss%3Ffamily%3DArchitects%2BDaughter;fillColor=#B2C9AB;strokeColor=#788AA3;labelBackgroundColor=none;fontColor=#46495D;container=0;sketch=1;curveFitting=1;jiggle=2;" vertex="1" parent="zqaokejbdEh-BQly5nrr-1">
          <mxGeometry x="190" y="82" width="50" height="50" as="geometry" />
        </mxCell>
        <mxCell id="zqaokejbdEh-BQly5nrr-8" style="rounded=0;orthogonalLoop=1;jettySize=auto;html=1;exitX=0.323;exitY=0.933;exitDx=0;exitDy=0;entryX=0.727;entryY=0.053;entryDx=0;entryDy=0;endArrow=none;endFill=0;entryPerimeter=0;exitPerimeter=0;sketch=1;curveFitting=1;jiggle=2;" edge="1" parent="zqaokejbdEh-BQly5nrr-1" source="zqaokejbdEh-BQly5nrr-9" target="zqaokejbdEh-BQly5nrr-2">
          <mxGeometry relative="1" as="geometry" />
        </mxCell>
        <mxCell id="zqaokejbdEh-BQly5nrr-9" value="&lt;h2&gt;&lt;font face=&quot;Helvetica&quot; style=&quot;font-size: 22px; font-weight: normal;&quot;&gt;1&lt;/font&gt;&lt;/h2&gt;" style="ellipse;whiteSpace=wrap;html=1;aspect=fixed;hachureGap=4;fontFamily=Architects Daughter;fontSource=https%3A%2F%2Ffonts.googleapis.com%2Fcss%3Ffamily%3DArchitects%2BDaughter;fillColor=#B2C9AB;strokeColor=#788AA3;labelBackgroundColor=none;fontColor=#46495D;container=0;sketch=1;curveFitting=1;jiggle=2;" vertex="1" parent="zqaokejbdEh-BQly5nrr-1">
          <mxGeometry x="37.5" y="162" width="50" height="50" as="geometry" />
        </mxCell>
        <mxCell id="zqaokejbdEh-BQly5nrr-10" value="&lt;h2&gt;&lt;font face=&quot;Helvetica&quot; style=&quot;font-size: 22px; font-weight: normal;&quot;&gt;3&lt;/font&gt;&lt;/h2&gt;" style="ellipse;whiteSpace=wrap;html=1;aspect=fixed;hachureGap=4;fontFamily=Architects Daughter;fontSource=https%3A%2F%2Ffonts.googleapis.com%2Fcss%3Ffamily%3DArchitects%2BDaughter;fillColor=#B2C9AB;strokeColor=#788AA3;labelBackgroundColor=none;fontColor=#46495D;container=0;sketch=1;curveFitting=1;jiggle=2;" vertex="1" parent="zqaokejbdEh-BQly5nrr-1">
          <mxGeometry x="117.5" y="162" width="50" height="50" as="geometry" />
        </mxCell>
        <mxCell id="zqaokejbdEh-BQly5nrr-11" style="rounded=0;orthogonalLoop=1;jettySize=auto;html=1;entryX=1;entryY=0;entryDx=0;entryDy=0;endArrow=none;endFill=0;exitX=0.329;exitY=0.964;exitDx=0;exitDy=0;exitPerimeter=0;sketch=1;curveFitting=1;jiggle=2;" edge="1" parent="zqaokejbdEh-BQly5nrr-1" source="zqaokejbdEh-BQly5nrr-3" target="zqaokejbdEh-BQly5nrr-6">
          <mxGeometry relative="1" as="geometry">
            <mxPoint x="151.5" y="62" as="sourcePoint" />
            <mxPoint x="120.5" y="88" as="targetPoint" />
          </mxGeometry>
        </mxCell>
        <mxCell id="zqaokejbdEh-BQly5nrr-12" style="rounded=0;orthogonalLoop=1;jettySize=auto;html=1;entryX=0;entryY=0;entryDx=0;entryDy=0;endArrow=none;endFill=0;exitX=0.754;exitY=0.935;exitDx=0;exitDy=0;exitPerimeter=0;sketch=1;curveFitting=1;jiggle=2;" edge="1" parent="zqaokejbdEh-BQly5nrr-1" source="zqaokejbdEh-BQly5nrr-3" target="zqaokejbdEh-BQly5nrr-7">
          <mxGeometry relative="1" as="geometry">
            <mxPoint x="230.5" y="53" as="sourcePoint" />
            <mxPoint x="197.5" y="87" as="targetPoint" />
          </mxGeometry>
        </mxCell>
      </root>
    </mxGraphModel>
  </diagram>
</mxfile>
